# xmcd
#
# Track frame offsets:
#	150
#	6830
#	18825
#	34245
#	60720
#	73698
#	103225
#	116695
#	153625
#	165900
#	204878
#	217848
#	234348
#	264998
#	294288
#
# Disc length: 4182
#
# Revision: 1
# Processed by: cddbd v1.5.1PL0 Copyright (c) Steve Scherf et al.
# Submitted via: CDex 1.50
# Normalized: r0:DSETVAR1,TDELIM( - )
#
DISCID=c210540f
DTITLE=Various Artist - pop#6
DYEAR=1996
DGENRE=Jazz
TTITLE0=Charlie Haden - Requiem - Now is the Hour - 1996
TTITLE1=Charlie Parker - Bloomdido - Bird and Diz - 1950
TTITLE2=Jimmy Smith - The Cat - The Cat - 1964
TTITLE3=Lester Young with The Oscar Peterson Trio - Ad Lib Blues - The Presedent Palys - 1958
TTITLE4=Bud Powell - Get Happy - Jazz Giant - 1950
TTITLE5=Gil Evans - Las Vegas Tango - The Individualism of Gil Evans - 1964
TTITLE6=Billie holiday - Moonglow - Solitude - 1952
TTITLE7=Jimmy Smith and Wes Montgomery - James and Wes - Jimmy and Wes - The Dynamic Duo - 1966
TTITLE8=Stan Gets - Stella By Starlight - Stan Getz Plays - 1953
TTITLE9=Abbey Lincoln - A Time For Love - You Gotta Play the Band - 1991
TTITLE10=Kenny Burrell - Downstairs - Guitar Forms - 1965
TTITLE11=Ben Webster - Chelsea Bridge - The Soul of Ben Webster - 1959
TTITLE12=Donald Byrd - Cantaloupe Island - Up with Donald Byrd - 1964
TTITLE13=Joe Henderson - Jonny Come Lately - Lushlife - The Music of Billy Strayhorn - 1992
TTITLE14=Charlie Haden Quartet West - Ev´ry Time We Say Goodbye - Hounted Heart - 1991
EXTD=YEAR: 1996
EXTT0=
EXTT1=
EXTT2=
EXTT3=
EXTT4=
EXTT5=
EXTT6=
EXTT7=
EXTT8=
EXTT9=
EXTT10=
EXTT11=
EXTT12=
EXTT13=
EXTT14=
PLAYORDER=
